PathFileType	4	(X/Y/Z)	./resultDataOpenSim/trcMotMarkerGrf/sub09/qtm-13-04.trc
DataRate	CameraRate	NumFrames	NumMarkers	Units	OrigDataRate	OrigDataStartFrame	OrigNumFrames
250.000000	250.000000	6	24	m	250.000000	449	512
Frame#	Time	L.Toe.Tip			R.Toe.Tip			L.Ankle.Lat			R.Ankle.Lat			L.Ankle.Med			R.Ankle.Med			L.Heel			R.Heel			L.Knee.Lat			R.Knee.Lat			L.Knee.Med			R.Knee.Med			L.Thigh.Upper			R.Thigh.Upper			L.ASIS			R.ASIS			V.Sacral			L.Acromium			R.Acromium			C7			L.Elbow			R.Elbow			L.Wrist.Lat			R.Wrist.Lat
		X1	Y1	Z1	X2	Y2	Z2	X3	Y3	Z3	X4	Y4	Z4	X5	Y5	Z5	X6	Y6	Z6	X7	Y7	Z7	X8	Y8	Z8	X9	Y9	Z9	X10	Y10	Z10	X11	Y11	Z11	X12	Y12	Z12	X13	Y13	Z13	X14	Y14	Z14	X15	Y15	Z15	X16	Y16	Z16	X17	Y17	Z17	X18	Y18	Z18	X19	Y19	Z19	X20	Y20	Z20	X21	Y21	Z21	X22	Y22	Z22	X23	Y23	Z23	X24	Y24	Z24

449	1.792	1.8387397	0.059535157	-0.09561295	1.0945572	0.04292628	0.03210077	1.6864351	0.075984774	-0.14033229	0.97945509	0.12077098	0.08474596	1.7055017	0.097990973	-0.046073611	1.0132031	0.15732828	-0.0032663956	1.6220264	0.028888053	-0.094869162	0.90869216	0.13918684	0.032771647	1.5981607	0.48506222	-0.17198817	1.2847502	0.47535792	0.13812188	1.60585	0.48021377	-0.046770088	1.2712005	0.46299782	0.013138098	1.410555	0.85479557	-0.20541116	1.357078	0.86958598	0.16547675	1.4767391	0.94732419	-0.13785125	1.46737	0.95024937	0.10454072	1.3006332	0.9959608	-0.033744013	1.4166418	1.4001288	-0.20245759	1.4133897	1.4173127	0.13028937	1.3473894	1.4554703	-0.036090145	1.2496616	1.0719505	-0.25774248	1.2756792	1.0849213	0.23508292	1.3715031	0.84019413	-0.31111404	1.4373295	0.86432522	0.2639432
450	1.796	1.8403556	0.054794013	-0.094178173	1.0953575	0.043158437	0.032148775	1.6891819	0.075560679	-0.14070346	0.98234881	0.12368181	0.08579908	1.7074054	0.097113012	-0.046291587	1.0168444	0.15936303	-0.0019703706	1.6230737	0.029767473	-0.095838139	0.91219241	0.14338691	0.033754031	1.6062631	0.48631719	-0.17207702	1.2916111	0.47465931	0.13883751	1.6114797	0.48093531	-0.046875163	1.2785113	0.46171463	0.013857868	1.4171836	0.85538396	-0.20598258	1.3634826	0.8685062	0.16475567	1.4828197	0.94790254	-0.13845793	1.4733566	0.94971742	0.10386029	1.3065328	0.9956127	-0.034137283	1.4221873	1.399849	-0.20310079	1.4185113	1.417031	0.12970908	1.3527273	1.4552606	-0.036846337	1.2560995	1.07115	-0.25871051	1.2810865	1.0844379	0.23397667	1.3779741	0.8394664	-0.31162011	1.4416107	0.86335896	0.26367739
451	1.8	1.8417857	0.050362395	-0.092931737	1.0962155	0.043304311	0.032335995	1.6916023	0.075028424	-0.14092158	0.98522656	0.12668543	0.086815627	1.7090582	0.096183273	-0.046314935	1.0207684	0.16146611	-0.00063854127	1.6239256	0.030649107	-0.096681842	0.9160199	0.14772076	0.034685275	1.6143481	0.48741629	-0.17216554	1.2985279	0.47399205	0.13955504	1.6170817	0.48146547	-0.046936829	1.2861535	0.46047106	0.014683256	1.423686	0.8561579	-0.20657344	1.3698781	0.86750114	0.16404791	1.4889298	0.94860537	-0.13909551	1.4793192	0.9492666	0.10315838	1.3124664	0.99526187	-0.034523793	1.4277297	1.3996397	-0.20369361	1.4236362	1.4168445	0.12910428	1.358031	1.4550223	-0.037584941	1.2625663	1.0704555	-0.25971308	1.2861196	1.0840964	0.23279902	1.3844528	0.83881235	-0.3120935	1.4458675	0.86246607	0.263362
452	1.804	1.8432166	0.046802417	-0.09187444	1.0971135	0.04336069	0.032637044	1.6937623	0.074412276	-0.14087237	0.98808888	0.12976384	0.087821686	1.7104581	0.09524198	-0.045978299	1.0249493	0.16363706	0.00072785104	1.6247207	0.031504453	-0.097523609	0.92016512	0.15218177	0.035582135	1.6221995	0.48825897	-0.17227152	1.3055657	0.47335322	0.14029846	1.6225092	0.48175896	-0.046989497	1.2942096	0.4592487	0.0156495	1.4302172	0.8570796	-0.20726576	1.3762491	0.86658857	0.16333427	1.4950592	0.94939106	-0.1397446	1.4852935	0.94889864	0.1024344	1.3184195	0.99488865	-0.03494082	1.4332708	1.3994853	-0.20423509	1.4287782	1.4167155	0.12848315	1.3632674	1.4547493	-0.038277524	1.2690637	1.0698507	-0.26071709	1.2906616	1.0839084	0.23153822	1.3909817	0.83822022	-0.31254935	1.4501063	0.86165026	0.26300621
453	1.808	1.8446861	0.044363709	-0.091051833	1.0980309	0.043379223	0.032888276	1.6957114	0.073782834	-0.14046861	0.99121929	0.13293295	0.088869704	1.7116273	0.09434765	-0.045237426	1.0293761	0.16585761	0.0021348707	1.6255423	0.032260071	-0.098294688	0.92459562	0.15677724	0.036462038	1.6297247	0.48877745	-0.17237889	1.3129472	0.47270111	0.14117384	1.6272084	0.48185349	-0.047223585	1.3026029	0.45802286	0.016739464	1.4368274	0.85809339	-0.20807068	1.3825787	0.86577434	0.16259028	1.5011825	0.95021828	-0.14039133	1.4912946	0.94860579	0.10169229	1.3243543	0.99448668	-0.035405884	1.4388123	1.3993742	-0.204736	1.4339534	1.4166106	0.12785503	1.3684167	1.4544365	-0.038929115	1.2756051	1.0693192	-0.26168383	1.2949579	1.0838547	0.23023019	1.3975885	0.83768876	-0.31299864	1.454305	0.86091573	0.26262491
454	1.812	1.8460589	0.042893697	-0.090425788	1.0989267	0.043419347	0.032977796	1.6973838	0.073231072	-0.13973723	0.99475988	0.13621365	0.090007406	1.7126144	0.093551149	-0.044215191	1.034042	0.16812173	0.0035915563	1.6263688	0.032866137	-0.098848292	0.92926331	0.16153695	0.037356117	1.6369797	0.48898793	-0.1724385	1.3208503	0.47196903	0.1422473	1.6306869	0.48183666	-0.047839178	1.3111794	0.4567649	0.017906624	1.4434501	0.85912664	-0.20893707	1.3888621	0.86504646	0.16179504	1.5072668	0.95105655	-0.14103663	1.4973137	0.94836684	0.10093663	1.3302392	0.99407632	-0.035915327	1.4443548	1.3993076	-0.20521267	1.4391603	1.416528	0.12722997	1.3734969	1.4541019	-0.039562434	1.282196	1.0688629	-0.26258663	1.2994913	1.0838956	0.22895113	1.4042724	0.83722795	-0.31344107	1.4584532	0.86026791	0.2622246
